<svg xmlns="http://www.w3.org/2000/svg" viewBox="0 0 512 512">
  <defs>
    <linearGradient id="bg" x1="0%" y1="0%" x2="100%" y2="100%">
      <stop offset="0%" style="stop-color:#6366f1"/>
      <stop offset="100%" style="stop-color:#7c3aed"/>
    </linearGradient>
  </defs>
  <rect width="512" height="512" rx="100" fill="url(#bg)"/>
  <g transform="translate(256,256)">
    <path d="M0 0 L0 -170 A170 170 0 0 1 147.2 -85 Z" fill="#10b981" opacity="0.9"/>
    <path d="M0 0 L147.2 -85 A170 170 0 0 1 147.2 85 Z" fill="#f59e0b" opacity="0.9"/>
    <path d="M0 0 L147.2 85 A170 170 0 0 1 0 170 Z" fill="#ef4444" opacity="0.9"/>
    <path d="M0 0 L0 170 A170 170 0 0 1 -147.2 85 Z" fill="#8b5cf6" opacity="0.9"/>
    <path d="M0 0 L-147.2 85 A170 170 0 0 1 -147.2 -85 Z" fill="#06b6d4" opacity="0.9"/>
    <path d="M0 0 L-147.2 -85 A170 170 0 0 1 0 -170 Z" fill="#ec4899" opacity="0.9"/>
  </g>
  <circle cx="256" cy="256" r="50" fill="#1e293b"/>
  <circle cx="256" cy="256" r="22" fill="#f59e0b"/>
  <polygon points="256,30 242,80 270,80" fill="#ef4444"/>
</svg>
