<svg xmlns="http://www.w3.org/2000/svg" viewBox="0 0 192 192">
  <defs>
    <linearGradient id="bg" x1="0%" y1="0%" x2="100%" y2="100%">
      <stop offset="0%" style="stop-color:#6366f1"/>
      <stop offset="100%" style="stop-color:#7c3aed"/>
    </linearGradient>
  </defs>
  <rect width="192" height="192" rx="40" fill="url(#bg)"/>
  <g transform="translate(96,96)">
    <path d="M0 0 L0 -62 A62 62 0 0 1 53.7 -31 Z" fill="#10b981" opacity="0.9"/>
    <path d="M0 0 L53.7 -31 A62 62 0 0 1 53.7 31 Z" fill="#f59e0b" opacity="0.9"/>
    <path d="M0 0 L53.7 31 A62 62 0 0 1 0 62 Z" fill="#ef4444" opacity="0.9"/>
    <path d="M0 0 L0 62 A62 62 0 0 1 -53.7 31 Z" fill="#8b5cf6" opacity="0.9"/>
    <path d="M0 0 L-53.7 31 A62 62 0 0 1 -53.7 -31 Z" fill="#06b6d4" opacity="0.9"/>
    <path d="M0 0 L-53.7 -31 A62 62 0 0 1 0 -62 Z" fill="#ec4899" opacity="0.9"/>
  </g>
  <circle cx="96" cy="96" r="18" fill="#1e293b"/>
  <circle cx="96" cy="96" r="8" fill="#f59e0b"/>
  <polygon points="96,12 88,30 104,30" fill="#ef4444"/>
</svg>
